<?xml version="1.0" encoding="utf-8"?>
<!-- Generator: Adobe Illustrator 16.0.4, SVG Export Plug-In . SVG Version: 6.00 Build 0)  -->
<!DOCTYPE svg PUBLIC "-//W3C//DTD SVG 1.1//EN" "http://www.w3.org/Graphics/SVG/1.1/DTD/svg11.dtd">
<svg version="1.1" id="Layer_1" xmlns="http://www.w3.org/2000/svg" xmlns:xlink="http://www.w3.org/1999/xlink" x="0px" y="0px"
	 width="183px" height="40px" viewBox="0 0 183 40" enable-background="new 0 0 183 40" xml:space="preserve">
<g>
	<path fill="#141414" d="M16.809,3.748h4.789l12.938,29.615h-5.461l-2.983-7.1H12.188l-3.024,7.1H3.87L16.809,3.748z M24.202,21.686
		L19.119,9.923l-5.041,11.763H24.202z"/>
	<path fill="#141414" d="M46.754,21.77L35.077,3.958h6.091l8.233,13.022l8.317-13.022h5.923L51.963,21.643v11.721h-5.209V21.77z"/>
	<path fill="#141414" d="M77.121,3.748h4.789l12.938,29.615h-5.46l-2.983-7.1H72.5l-3.024,7.1h-5.293L77.121,3.748z M84.514,21.686
		L79.431,9.923L74.39,21.686H84.514z"/>
	<path fill="#141414" d="M100.008,29.079l3.109-3.697c2.814,2.437,5.629,3.823,9.283,3.823c3.192,0,5.209-1.471,5.209-3.697v-0.084
		c0-2.1-1.176-3.234-6.637-4.494c-6.261-1.513-9.789-3.362-9.789-8.781v-0.084c0-5.041,4.2-8.527,10.041-8.527
		c4.284,0,7.688,1.302,10.67,3.697l-2.772,3.906c-2.646-1.974-5.293-3.024-7.981-3.024c-3.024,0-4.789,1.554-4.789,3.487v0.084
		c0,2.269,1.344,3.276,6.974,4.621c6.218,1.512,9.452,3.739,9.452,8.612v0.084c0,5.503-4.327,8.779-10.502,8.779
		C107.779,33.783,103.537,32.229,100.008,29.079z"/>
	<path fill="#141414" d="M132.014,3.958h10.963c9.242,0,15.627,6.343,15.627,14.619v0.084c0,8.274-6.385,14.703-15.627,14.703
		h-10.963V3.958z M142.977,28.659c6.176,0,10.209-4.159,10.209-9.914v-0.084c0-5.755-4.033-9.998-10.209-9.998h-5.797v19.996
		H142.977z"/>
	<path fill="#141414" d="M168.301,3.958h5.167v29.405h-5.167V3.958z"/>
</g>
</svg>
